<?xml version="1.0" encoding="UTF-8"?>
<svg id="Layer_2" data-name="Layer 2" xmlns="http://www.w3.org/2000/svg" viewBox="0 0 496.47 82.81">
  <defs>
    <style>
      .cls-1 {
        fill: #09153a;
        stroke-width: 0px;
      }
    </style>
  </defs>
  <g id="Layer_1-2" data-name="Layer 1">
    <path class="cls-1" d="m89.75.06c11.58,0,23.15,0,34.73,0,7.38,1.03,10.37,5.4,8.46,12.56-.94,3.54-2.19,7.01-3.05,10.57-.41,1.69-1.1,2.31-2.86,2.26-3.93-.11-7.86-.08-11.78-.01-1.57.03-2.19-.26-1.58-2.01.92-2.65,1.51-5.4,2.35-8.08.56-1.77.16-2.74-1.83-2.74-6.11,0-12.22-.02-18.33.01-1.44,0-2.43.66-2.86,2.16-1.21,4.26-2.48,8.49-3.75,12.73-.69,2.33,1.02,1.82,2.21,1.83,11.13.02,22.26.09,33.39-.05,2.83-.04,3.21.63,2.36,3.22-1.94,5.95-3.64,11.98-5.25,18.02-.49,1.83-1.25,2.41-3.12,2.34-3.81-.14-7.64-.12-11.46,0-1.9.06-2.2-.51-1.63-2.24,1.11-3.37,2-6.81,3.13-10.71-7.51,0-14.74,0-21.98,0-1.34,0-1.49.94-1.76,1.91-.84,3.01-1.82,5.99-2.58,9.02-.39,1.55-1.12,2.06-2.71,2.02-3.93-.11-7.86-.12-11.78,0-1.96.06-2.11-.62-1.62-2.28,3.89-13.14,7.6-26.33,11.58-39.45,1.75-5.76,4.88-10.43,11.71-11.06Z"/>
    <path class="cls-1" d="m496.47.09c-5.07,17.34-10.06,34.31-14.96,51.3-.36,1.26-1,1.45-2.08,1.45-4.69-.02-9.37,0-14.42,0,1.94-6.79,3.81-13.37,5.78-20.26-7.69,0-15.09.04-22.5-.03-1.86-.02-1.72,1.43-2.02,2.4-1.62,5.26-3.16,10.55-4.61,15.85-.36,1.3-.67,2.1-2.28,2.06-4.68-.1-9.37-.03-14.4-.03,3.12-10.67,6.23-21.08,9.19-31.54.55-1.95,1.86-1.49,3.06-1.49,11.46-.03,22.92-.11,34.37.06,2.5.04,3.35-.88,3.92-3.03,1.29-4.9,2.8-9.75,4.17-14.63.38-1.34.78-2.21,2.55-2.15,4.57.16,9.15.05,14.22.05Z"/>
    <path class="cls-1" d="m197.77.15c-.94,3.56-1.9,6.65-2.53,9.81-.42,2.08-1.32,2.72-3.47,2.69-9.92-.12-19.85-.06-29.77-.05-2.58,0-5.83,4.84-4.82,7.16.48,1.09,1.51.64,2.29.64,6.65.04,13.31,0,19.96.04,1.52,0,3.06.07,4.55.35,6.86,1.26,10.02,8.32,6.53,14.34-.58,1.01-1.41.86-2.24.86-4.04.02-8.07,0-12.11,0-1.11,0-2.43.15-1.63-1.65.97-2.2-.3-2.28-1.97-2.27-7.2.04-14.4.06-21.59,0-8.44-.07-12.18-4.86-10.01-12.85.85-3.12,1.74-6.24,2.92-9.25,2.44-6.23,7.94-9.83,14.67-9.83,12.97-.01,25.94,0,39.23,0Z"/>
    <path class="cls-1" d="m65.71.09c-13.38,17.51-26.35,34.45-39.27,51.42-.85,1.12-1.78,1.35-3.05,1.33-4.58-.05-9.16-.02-13.78-.02-.27-1.19.69-1.77,1.21-2.47,11.9-15.99,23.87-31.94,35.73-47.96C47.86.64,49.24-.04,51.41.04c4.55.16,9.11.05,14.3.05Z"/>
    <path class="cls-1" d="m229.35.14c-4.55,15.63-9.01,30.95-13.48,46.27-1.87,6.41-1.9,6.4-8.68,6.4-3.03,0-6.06,0-9.33,0,5.03-17.2,10.01-34.16,14.92-51.15.34-1.19.87-1.54,2.01-1.54,4.77.03,9.54.01,14.56.01Z"/>
    <path class="cls-1" d="m365.22,12.6c1.19-4.02,2.34-7.7,3.37-11.42.33-1.2,1.13-1.09,2-1.09,17.44,0,34.88.02,52.32-.03,1.5,0,1.99.41,1.51,1.83-.07.2-.12.42-.19.62-1.05,3.28-1.2,7.56-3.42,9.54-2.14,1.9-6.46.52-9.81.53-13.94.05-27.89.02-41.83.02h-3.94Z"/>
    <path class="cls-1" d="m133.64,52.79c1.24-4.47,1.22-9.68,3.83-12.21,2.4-2.32,7.67-.61,11.67-.63,12.31-.07,24.62.06,36.92-.09,3.01-.04,2.99.94,1.96,3.13-2.7,5.73-7.01,9.59-13.5,9.71-13.49.26-27,.08-40.9.08Z"/>
    <path class="cls-1" d="m293.24.12c-.94,3.56-1.9,6.65-2.53,9.81-.42,2.08-1.32,2.72-3.47,2.69-9.92-.12-19.85-.06-29.77-.05-2.58,0-5.83,4.84-4.82,7.16.48,1.09,1.51.64,2.29.64,6.65.04,13.31,0,19.96.04,1.52,0,3.06.07,4.55.35,6.86,1.26,10.02,8.32,6.53,14.34-.58,1.01-1.41.86-2.24.86-4.04.02-8.07,0-12.11,0-1.11,0-2.43.15-1.63-1.65.97-2.2-.3-2.28-1.97-2.27-7.2.04-14.4.06-21.59,0-8.44-.07-12.18-4.86-10.01-12.85.85-3.12,1.74-6.24,2.92-9.25,2.44-6.23,7.94-9.83,14.67-9.83,12.97-.01,25.94,0,39.23,0Z"/>
    <path class="cls-1" d="m229.12,52.77c1.24-4.47,1.22-9.68,3.83-12.21,2.4-2.32,7.67-.61,11.67-.63,12.31-.07,24.62.06,36.92-.09,3.01-.04,2.99.94,1.96,3.13-2.7,5.73-7.01,9.59-13.5,9.71-13.49.26-27,.08-40.9.08Z"/>
    <path class="cls-1" d="m7.98,47.53c-1.63-9.28-3.14-17.86-4.65-26.45C2.28,15.12,1.3,9.14.18,3.2-.22,1.03-.17-.18,2.69.02c3.8.27,7.64.16,11.45.03,1.74-.06,2.53.47,2.84,2.2,1.48,8.3,3.06,16.57,4.57,24.86.15.82.36,1.69-.24,2.5-4.33,5.79-8.63,11.59-13.34,17.92Z"/>
    <path class="cls-1" d="m380.95,52.83c-2.09-.24-5.81,1.13-6.89-.54-.94-1.45.99-4.77,1.71-7.25,2.45-8.5,5-16.97,7.34-25.5.6-2.18,1.55-2.92,3.81-2.78,3.59.21,7.2.15,10.8.02,1.97-.07,2.21.7,1.74,2.31-3.14,10.66-6.27,21.32-9.34,32-.4,1.4-1.03,1.88-2.48,1.78-2.06-.14-4.14-.03-6.68-.03Z"/>
    <path class="cls-1" d="m456.43.06c-1.4,4.88-2.72,9.42-3.99,13.96-.36,1.29-.93,1.91-2.47,1.86-4.01-.14-8.04-.12-12.05,0-1.65.05-2.14-.38-1.64-1.99,1.27-4.11,2.52-8.22,3.66-12.37.33-1.19.89-1.49,2.03-1.48,4.66.05,9.33.02,14.46.02Z"/>
    <path class="cls-1" d="m360.42.09c-5.07,17.34-10.06,34.31-14.96,51.3-.36,1.26-1,1.45-2.08,1.45-4.69-.02-9.37,0-14.42,0,1.94-6.79,3.81-13.37,5.78-20.26-7.69,0-15.09.04-22.5-.03-1.86-.02-1.72,1.43-2.02,2.4-1.62,5.26-3.16,10.55-4.61,15.85-.36,1.3-.67,2.1-2.28,2.06-4.68-.1-9.37-.03-14.4-.03,3.12-10.67,6.23-21.08,9.19-31.54.55-1.95,1.86-1.49,3.06-1.49,11.46-.03,22.92-.11,34.37.06,2.5.04,3.35-.88,3.92-3.03,1.29-4.9,2.8-9.75,4.17-14.63.38-1.34.78-2.21,2.55-2.15,4.57.16,9.15.05,14.22.05Z"/>
    <path class="cls-1" d="m320.39.06c-1.4,4.88-2.72,9.42-3.99,13.96-.36,1.29-.93,1.91-2.47,1.86-4.01-.14-8.04-.12-12.05,0-1.65.05-2.14-.38-1.64-1.99,1.27-4.11,2.52-8.22,3.66-12.37.33-1.19.89-1.49,2.03-1.48,4.66.05,9.33.02,14.46.02Z"/>
    <path class="cls-1" d="m262.11,75.29c0-1.85-.02-3.69,0-5.54,0-.62-.05-1.41.96-1.33.66.05.9.56.95,1.14.04.43.03.87.03,1.3,0,4.39-.57,3.74,3.8,3.74,3.56,0,3.08.62,3.08-3.92,0-2.06-.16-2.15.71-2.15,1.15,0,1.05,1.35,1.07,2.2.06,3.47.02,6.95.02,10.42,0,1.72-.22,1.55-1.1,1.55-.73,0-.63.01-.72-1.49-.03-.43,0-.87,0-1.3,0-4.51.39-3.77-6-3.77-1.16,0-.78,1.17-.82,1.85-.06,1.19-.02,2.39-.04,3.58-.02.76-.4,1.22-1.24,1.14-.8-.08-.68-.72-.69-1.23-.02-2.06,0-4.13,0-6.19Z"/>
    <path class="cls-1" d="m207.02,74.84c0-1.85-.02-3.69,0-5.54,0-.62-.05-1.41.96-1.33.66.05.9.56.95,1.14.04.43.03.87.03,1.3,0,4.39-.57,3.74,3.8,3.74,3.56,0,3.08.62,3.08-3.92,0-2.06-.16-2.15.71-2.15,1.15,0,1.05,1.35,1.07,2.2.06,3.47.02,6.95.02,10.42,0,1.72-.22,1.55-1.1,1.55-.73,0-.63.01-.72-1.49-.03-.43,0-.87,0-1.3,0-4.51.39-3.77-6-3.77-1.16,0-.78,1.17-.82,1.85-.06,1.19-.02,2.39-.04,3.58-.02.76-.4,1.22-1.24,1.14-.8-.08-.68-.72-.69-1.23-.02-2.06,0-4.13,0-6.19Z"/>
    <path class="cls-1" d="m244.08,74.03c0,1.42.12,2.85-.03,4.25-.31,2.88-2.26,4.58-5.13,4.53-3.01-.06-4.91-1.47-5.1-4.49-.17-2.72-.15-5.44-.17-8.17,0-.7-.28-1.77.83-1.82,1.24-.05.82,1.07.83,1.73.06,2.4-.08,4.81.12,7.19.17,1.99.66,3.96,3.43,4,2.8.04,3.31-1.87,3.45-3.91.17-2.5.09-5.01.15-7.51.01-.62-.07-1.46.84-1.49,1.01-.03.78.87.8,1.45"/>
    <path class="cls-1" d="m195.21,75.72c.23,4.54,2.73,6.21,7.02,4.65.49-.18.96-.72,1.4-.03.4.62-.1,1.04-.55,1.33-.55.35-1.16.7-1.79.85-2.6.62-4.9.19-6.58-2.04-1.84-2.45-1.86-7.48-.02-9.9,1.65-2.16,3.91-2.87,6.54-2.29.9.2,2.44.54,2.14,1.6-.49,1.72-1.56.19-2.33-.06-3.25-1.05-6.05,1.75-5.84,5.9Z"/>
    <path class="cls-1" d="m304.12,75.68c0,1.85.01,3.7,0,5.55,0,.68-.14,1.32-1.07,1.32-.99,0-.94-.69-.95-1.35,0-3.81,0-7.62,0-11.43,0-.66.02-1.42.88-1.52,1.18-.13,1.13.81,1.14,1.54.03,1.96,0,3.92,0,5.88Z"/>
    <path class="cls-1" d="m257.83,71.28c-1.48-2.95-5.77-3.8-8.52-3.1-1.47.37-1.15,2.21-1.15,4.84,0,.73-.03,1.51-.03,2.27,0,1.85,0,3.69,0,5.54,0,.87-.14,1.76,1.25,1.77,3.04.02,6.23.25,8.15-2.63,1.84-2.75,1.76-5.74.29-8.68Zm-7.72,3.88c0-.76.03-1.53.03-2.27,0-3.02-.27-2.83.74-3.13,1.26-.37,2.75-.01,3.83.74,2.17,1.49,2.47,3.78,2.14,6.13-.31,2.2-1.39,3.82-3.83,4.38-2.08.48-3.11-.04-2.93-2.27"/>
    <path class="cls-1" d="m296.54,77.99c-.55-.91-.97-1.59.41-2.3,1.88-.95,1.97-2.74,1.7-4.55-.32-2.16-2.12-2.64-3.69-2.84-.96-.12-1.99-.2-2.99-.2-1.28,0-2.87.43-2.87,2.62,0,2.49.1,5,.1,7.49,0,1.68-.13,4.07.87,4.07s.83-.15.83-3.88c0-.7-.23-1.63.93-1.77.89-.11,1.78-.2,2.32.78.68,1.24,1.44,2.44,2.13,3.68.57,1.02,1.14,1.94,2.68,1.13-.81-1.42-1.58-2.84-2.42-4.23Zm-3.53-2.91c-2.56.26-2.18-.57-2.18-2.95,0-1.48-.4-2.7,1.48-2.65,2.69.3,4.76.52,4.62,3.06-.12,2.33-2.12,2.36-3.92,2.54Z"/>
    <path class="cls-1" d="m286.42,80.99c-1.26-3.65-2.67-7.77-4.1-11.87-.24-.7-.83-.99-1.58-.97-1.04.04-1.17.93-1.41,1.6-1.28,3.59-2.53,7.19-3.74,10.81-.2.61-.51,1.6-.03,1.91,1.02.66,1.26-.09,1.69-1.46.9-2.89,2.44-2.72,4.64-2.74,2.38-.02,2.16,1.79,2.61,3.1.3.88.79,1.32,1.7,1.13.55-.12.47-.62.22-1.51Zm-5.63-10.57c1.31,1.9,1.48,4.01,2.21,6.1-5.72.69-4.89,1.11-2.21-6.1Z"/>
    <path class="cls-1" d="m231.22,80.99c-1.26-3.65-2.67-7.77-4.1-11.87-.24-.7-.83-.99-1.58-.97-1.04.04-1.17.93-1.41,1.6-1.28,3.59-2.53,7.19-3.74,10.81-.2.61-.51,1.6-.03,1.91,1.02.66,1.26-.09,1.69-1.46.9-2.89,2.44-2.72,4.64-2.74,2.38-.02,2.16,1.79,2.61,3.1.3.88.79,1.32,1.7,1.13.55-.12.47-.62.22-1.51Zm-5.63-10.57c1.31,1.9,1.48,4.01,2.21,6.1-5.72.69-4.89,1.11-2.21-6.1Z"/>
  </g>
</svg>